<?xml version="1.0" encoding="utf-8"?>
<!-- Generator: Adobe Illustrator 23.0.3, SVG Export Plug-In . SVG Version: 6.00 Build 0)  -->
<svg version="1.1" id="Calque_1" xmlns="http://www.w3.org/2000/svg" xmlns:xlink="http://www.w3.org/1999/xlink" x="0px" y="0px"
	 viewBox="0 0 1500 1000" style="enable-background:new 0 0 1500 1000;" xml:space="preserve">
<style type="text/css">
	.st0{opacity:0.5;clip-path:url(#SVGID_2_);fill:url(#SVGID_3_);}
	.st1{clip-path:url(#SVGID_2_);fill:none;stroke:#F6F6F6;stroke-width:13.3767;stroke-miterlimit:10;}
	.st2{clip-path:url(#SVGID_2_);}
	.st3{fill:#FFFFFF;stroke:#F6F6F6;stroke-width:13.3767;stroke-miterlimit:10;}
	.st4{opacity:0.7;fill:url(#SVGID_4_);stroke:#F6F6F6;stroke-width:13.3767;stroke-miterlimit:10;}
	.st5{fill:none;stroke:#F6F6F6;stroke-width:13.3767;stroke-miterlimit:10;}
	.st6{opacity:0.7;fill:url(#SVGID_5_);stroke:#F6F6F6;stroke-width:13.3767;stroke-miterlimit:10;}
	.st7{opacity:0.7;fill:url(#SVGID_6_);stroke:#F6F6F6;stroke-width:13.3767;stroke-miterlimit:10;}
	.st8{opacity:0.7;fill:url(#SVGID_7_);stroke:#F6F6F6;stroke-width:13.3767;stroke-miterlimit:10;}
	.st9{clip-path:url(#SVGID_2_);fill:none;}
</style>
<g id="Calque_2">
</g>
<g>
	<defs>
		<rect id="SVGID_1_" width="1500" height="1000.35"/>
	</defs>
	<clipPath id="SVGID_2_">
		<use xlink:href="#SVGID_1_"  style="overflow:visible;"/>
	</clipPath>
	<linearGradient id="SVGID_3_" gradientUnits="userSpaceOnUse" x1="-582.3233" y1="87.8062" x2="2193.3171" y2="1690.323">
		<stop  offset="0" style="stop-color:#95C11F"/>
		<stop  offset="0.7412" style="stop-color:#31B7BC"/>
	</linearGradient>
	<rect x="-213.16" y="-551.61" class="st0" width="2037.31" height="2881.34"/>
	<path class="st1" d="M1662.19-1071.78l-245.82-48.85c-100.08-19.89-205.25,4.39-279.57,64.54l-63.4,51.32
		c-74.32,60.15-179.49,84.43-279.57,64.54l-85.38-16.97c-100.08-19.89-205.25,4.39-279.57,64.54l-63.4,51.32
		C291.17-781.21,186-756.93,85.92-776.82L0.54-793.79c-100.08-19.89-205.25,4.39-279.57,64.54l-63.4,51.32
		c-74.32,60.15-179.49,84.43-279.57,64.54l-85.38-16.97c-100.08-19.89-205.25,4.39-279.57,64.54l-63.4,51.32
		c-74.32,60.15-179.49,84.43-279.57,64.54l-85.38-16.97c-100.08-19.89-205.25,4.39-279.57,64.54l-182.53,147.74"/>
	<path class="st1" d="M1685.38-999.74l-245.82-48.85c-100.08-19.89-205.25,4.39-279.57,64.54l-63.4,51.32
		c-74.32,60.15-179.49,84.43-279.57,64.54l-85.38-16.97c-100.08-19.89-205.25,4.39-279.57,64.54l-63.4,51.32
		c-74.32,60.15-179.49,84.43-279.57,64.54l-85.38-16.97c-100.08-19.89-205.25,4.39-279.57,64.54l-63.4,51.32
		c-74.32,60.15-179.49,84.43-279.57,64.54l-85.38-16.97c-100.08-19.89-205.25,4.39-279.57,64.54l-63.4,51.32
		c-74.32,60.15-179.49,84.43-279.57,64.54l-85.38-16.97c-100.08-19.89-205.25,4.39-279.57,64.54l-182.53,147.74"/>
	<path class="st1" d="M1739.01-856.38l-245.82-48.85c-100.08-19.89-205.25,4.39-279.57,64.54l-63.4,51.32
		c-74.32,60.15-179.49,84.43-279.57,64.54l-85.38-16.97c-100.08-19.89-205.25,4.39-279.57,64.54l-63.4,51.32
		c-74.32,60.15-179.49,84.43-279.57,64.54l-85.38-16.97C-22.72-598.28-127.9-574-202.21-513.85l-63.4,51.32
		c-74.32,60.15-179.49,84.43-279.57,64.54l-85.38-16.97c-100.08-19.89-205.25,4.39-279.57,64.54l-63.4,51.32
		c-74.32,60.15-179.49,84.43-279.57,64.54l-85.38-16.97c-100.08-19.89-205.25,4.39-279.57,64.54l-182.53,147.74"/>
	<path class="st1" d="M1715.59-929.12l-245.82-48.85c-100.08-19.89-205.25,4.39-279.57,64.54l-63.4,51.32
		c-74.32,60.15-179.49,84.43-279.57,64.54l-85.38-16.97c-100.08-19.89-205.25,4.39-279.57,64.54l-63.4,51.32
		c-74.32,60.15-179.49,84.43-279.57,64.54l-85.38-16.97c-100.08-19.89-205.25,4.39-279.57,64.54l-63.4,51.32
		c-74.32,60.15-179.49,84.43-279.57,64.54l-85.38-16.97c-100.08-19.89-205.25,4.39-279.57,64.54l-63.4,51.32
		c-74.32,60.15-179.49,84.43-279.57,64.54l-85.38-16.97c-100.08-19.89-205.25,4.39-279.57,64.54l-182.53,147.74"/>
	<path class="st1" d="M1762.2-784.34l-245.82-48.85c-100.08-19.89-205.25,4.39-279.57,64.54l-63.4,51.32
		c-74.32,60.15-179.49,84.43-279.57,64.54l-85.38-16.97c-100.08-19.89-205.25,4.39-279.57,64.54l-63.4,51.32
		c-74.32,60.15-179.49,84.43-279.57,64.54l-85.38-16.97c-100.08-19.89-205.25,4.39-279.57,64.54l-63.4,51.32
		c-74.32,60.15-179.49,84.43-279.57,64.54l-85.38-16.97c-100.08-19.89-205.25,4.39-279.57,64.54l-63.4,51.32
		c-74.32,60.15-179.49,84.43-279.57,64.54l-85.38-16.97c-100.08-19.89-205.25,4.39-279.57,64.54l-182.53,147.74"/>
	<path class="st1" d="M1789.16-712.66l-245.82-48.85c-100.08-19.89-205.25,4.39-279.57,64.54l-63.4,51.32
		c-74.32,60.15-179.49,84.43-279.57,64.54l-85.38-16.97c-100.08-19.89-205.25,4.39-279.57,64.54l-63.4,51.32
		c-74.32,60.15-179.49,84.43-279.57,64.54l-85.38-16.97c-100.08-19.89-205.25,4.39-279.57,64.54l-63.4,51.32
		c-74.32,60.15-179.49,84.43-279.57,64.54l-85.38-16.97c-100.08-19.89-205.25,4.39-279.57,64.54l-63.4,51.32
		c-74.32,60.15-179.49,84.43-279.57,64.54l-85.38-16.97c-100.08-19.89-205.25,4.39-279.57,64.54l-182.53,147.74"/>
	<path class="st1" d="M1812.35-640.62l-245.82-48.85c-100.08-19.89-205.25,4.39-279.57,64.54l-63.4,51.32
		c-74.32,60.15-179.49,84.43-279.57,64.54l-85.38-16.97c-100.08-19.89-205.25,4.39-279.57,64.54l-63.4,51.32
		c-74.32,60.15-179.49,84.43-279.57,64.54l-85.38-16.97c-100.08-19.89-205.25,4.39-279.57,64.54l-63.4,51.32
		c-74.32,60.15-179.49,84.43-279.57,64.54l-85.38-16.97c-100.08-19.89-205.25,4.39-279.57,64.54l-63.4,51.32
		c-74.32,60.15-179.49,84.43-279.57,64.54l-85.38-16.97c-100.08-19.89-205.25,4.39-279.57,64.54l-182.53,147.74"/>
	<path class="st1" d="M1861.44-495.93l-245.82-48.85c-100.08-19.89-205.25,4.39-279.57,64.54l-63.4,51.32
		c-74.32,60.15-179.49,84.43-279.57,64.54l-85.38-16.97c-100.08-19.89-205.25,4.39-279.57,64.54l-63.4,51.32
		c-74.32,60.15-179.49,84.43-279.57,64.54l-85.38-16.97C99.71-237.84-5.47-213.56-79.78-153.41l-63.4,51.32
		c-74.32,60.15-179.49,84.43-279.57,64.54l-85.38-16.97c-100.08-19.89-205.25,4.39-279.57,64.54l-63.4,51.32
		c-74.32,60.15-179.49,84.43-279.57,64.54l-85.38-16.97c-100.08-19.89-205.25,4.39-279.57,64.54l-182.53,147.74"/>
	<path class="st1" d="M1838.02-568.67l-245.82-48.85c-100.08-19.89-205.25,4.39-279.57,64.54l-63.4,51.32
		c-74.32,60.15-179.49,84.43-279.57,64.54l-85.38-16.97c-100.08-19.89-205.25,4.39-279.57,64.54l-63.4,51.32
		C467-278.1,361.83-253.83,261.75-273.72l-85.38-16.97C76.29-310.58-28.88-286.3-103.2-226.15l-63.4,51.32
		c-74.32,60.15-179.49,84.43-279.57,64.54l-85.38-16.97c-100.08-19.89-205.25,4.39-279.57,64.54l-63.4,51.32
		c-74.32,60.15-179.49,84.43-279.57,64.54l-85.38-16.97c-100.08-19.89-205.25,4.39-279.57,64.54l-182.53,147.74"/>
	<path class="st1" d="M1884.63-423.9l-245.82-48.85c-100.08-19.89-205.25,4.39-279.57,64.54l-63.4,51.32
		c-74.32,60.15-179.49,84.43-279.57,64.54l-85.38-16.97c-100.08-19.89-205.25,4.39-279.57,64.54l-63.4,51.32
		c-74.32,60.15-179.49,84.43-279.57,64.54l-85.38-16.97C122.89-165.8,17.72-141.52-56.59-81.37l-63.4,51.32
		c-74.32,60.15-179.49,84.43-279.57,64.54l-85.38-16.97C-585.02-2.38-690.19,21.9-764.51,82.05l-63.4,51.32
		c-74.32,60.15-179.49,84.43-279.57,64.54l-85.38-16.97c-100.08-19.89-205.25,4.39-279.57,64.54l-182.53,147.74"/>
	<path class="st1" d="M1914.46-354.46l-245.82-48.85c-100.08-19.89-205.25,4.39-279.57,64.54l-63.4,51.32
		c-74.32,60.15-179.49,84.43-279.57,64.54l-85.38-16.97c-100.08-19.89-205.25,4.39-279.57,64.54l-63.4,51.32
		C543.44-63.89,438.27-39.61,338.19-59.5l-85.38-16.97C152.73-96.36,47.56-72.08-26.76-11.93l-63.4,51.32
		c-74.32,60.15-179.49,84.43-279.57,64.54l-85.38-16.97c-100.08-19.89-205.25,4.39-279.57,64.54l-63.4,51.32
		c-74.32,60.15-179.49,84.43-279.57,64.54l-85.38-16.97c-100.08-19.89-205.25,4.39-279.57,64.54l-182.53,147.74"/>
	<path class="st1" d="M1937.65-282.42l-245.82-48.85c-100.08-19.89-205.25,4.39-279.57,64.54l-63.4,51.32
		c-74.32,60.15-179.49,84.43-279.57,64.54l-85.38-16.97c-100.08-19.89-205.25,4.39-279.57,64.54L640.95-52
		C566.63,8.15,461.46,32.43,361.38,12.53L276-4.43C175.92-24.33,70.75-0.05-3.57,60.1l-63.4,51.32
		c-74.32,60.15-179.49,84.43-279.57,64.54l-85.38-16.97c-100.08-19.89-205.25,4.39-279.57,64.54l-63.4,51.32
		c-74.32,60.15-179.49,84.43-279.57,64.54l-85.38-16.97c-100.08-19.89-205.25,4.39-279.57,64.54l-182.53,147.74"/>
	<path class="st1" d="M1988.41-136.82l-245.82-48.85c-100.08-19.89-205.25,4.39-279.57,64.54l-63.4,51.32
		c-74.32,60.15-179.49,84.43-279.57,64.54l-85.38-16.97c-100.08-19.89-205.25,4.39-279.57,64.54l-63.4,51.32
		c-74.32,60.15-179.49,84.43-279.57,64.54l-85.38-16.97c-100.08-19.89-205.25,4.39-279.57,64.54l-63.4,51.32
		c-74.32,60.15-179.49,84.43-279.57,64.54l-85.38-16.97c-100.08-19.89-205.25,4.39-279.57,64.54l-63.4,51.32
		c-74.32,60.15-179.49,84.43-279.57,64.54l-85.38-16.97c-100.08-19.89-205.25,4.39-279.57,64.54l-182.53,147.74"/>
	<path class="st1" d="M1964.99-209.56l-245.82-48.85c-100.08-19.89-205.25,4.39-279.57,64.54l-63.4,51.32
		c-74.32,60.15-179.49,84.43-279.57,64.54l-85.38-16.97c-100.08-19.89-205.25,4.39-279.57,64.54l-63.4,51.32
		C593.97,81.01,488.8,105.29,388.72,85.4l-85.38-16.97C203.26,48.54,98.09,72.82,23.77,132.97l-63.4,51.32
		c-74.32,60.15-179.49,84.43-279.57,64.54l-85.38-16.97c-100.08-19.89-205.25,4.39-279.57,64.54l-63.4,51.32
		c-74.32,60.15-179.49,84.43-279.57,64.54l-85.38-16.97c-100.08-19.89-205.25,4.39-279.57,64.54l-182.53,147.74"/>
	<path class="st1" d="M2011.6-64.78l-245.82-48.85c-100.08-19.89-205.25,4.39-279.57,64.54l-63.4,51.32
		c-74.32,60.15-179.49,84.43-279.57,64.54l-85.38-16.97c-100.08-19.89-205.25,4.39-279.57,64.54l-63.4,51.32
		c-74.32,60.15-179.49,84.43-279.57,64.54l-85.38-16.97c-100.08-19.89-205.25,4.39-279.57,64.54l-63.4,51.32
		c-74.32,60.15-179.49,84.43-279.57,64.54l-85.38-16.97c-100.08-19.89-205.25,4.39-279.57,64.54l-63.4,51.32
		c-74.32,60.15-179.49,84.43-279.57,64.54l-85.38-16.97c-100.08-19.89-205.25,4.39-279.57,64.54l-182.53,147.74"/>
	<path class="st1" d="M2038.16,7.56l-245.82-48.85c-100.08-19.89-205.25,4.39-279.57,64.54l-63.4,51.32
		c-74.32,60.15-179.49,84.43-279.57,64.54l-85.38-16.97c-100.08-19.89-205.25,4.39-279.57,64.54l-63.4,51.32
		c-74.32,60.15-179.49,84.43-279.57,64.54l-85.38-16.97c-100.08-19.89-205.25,4.39-279.57,64.54l-63.4,51.32
		c-74.32,60.15-179.49,84.43-279.57,64.54l-85.38-16.97c-100.08-19.89-205.25,4.39-279.57,64.54l-63.4,51.32
		c-74.32,60.15-179.49,84.43-279.57,64.54l-85.38-16.97c-100.08-19.89-205.25,4.39-279.57,64.54l-182.53,147.74"/>
	<path class="st1" d="M2061.34,79.6l-245.82-48.85c-100.08-19.89-205.25,4.39-279.57,64.54l-63.4,51.32
		c-74.32,60.15-179.49,84.43-279.57,64.54l-85.38-16.97c-100.08-19.89-205.25,4.39-279.57,64.54l-63.4,51.32
		c-74.32,60.15-179.49,84.43-279.57,64.54l-85.38-16.97c-100.08-19.89-205.25,4.39-279.57,64.54l-63.4,51.32
		c-74.32,60.15-179.49,84.43-279.57,64.54l-85.38-16.97c-100.08-19.89-205.25,4.39-279.57,64.54l-63.4,51.32
		c-74.32,60.15-179.49,84.43-279.57,64.54l-85.38-16.97c-100.08-19.89-205.25,4.39-279.57,64.54l-182.53,147.74"/>
	<path class="st1" d="M2114.97,222.96l-245.82-48.85c-100.08-19.89-205.25,4.39-279.57,64.54l-63.4,51.32
		c-74.32,60.15-179.49,84.43-279.57,64.54l-85.38-16.97c-100.08-19.89-205.25,4.39-279.57,64.54l-63.4,51.32
		c-74.32,60.15-179.49,84.43-279.57,64.54l-85.38-16.97c-100.08-19.89-205.25,4.39-279.57,64.54l-63.4,51.32
		c-74.32,60.15-179.49,84.43-279.57,64.54l-85.38-16.97c-100.08-19.89-205.25,4.39-279.57,64.54l-63.4,51.32
		c-74.32,60.15-179.49,84.43-279.57,64.54l-85.38-16.97c-100.08-19.89-205.25,4.39-279.57,64.54l-182.53,147.74"/>
	<path class="st1" d="M2091.56,150.22l-245.82-48.85c-100.08-19.89-205.25,4.39-279.57,64.54l-63.4,51.32
		c-74.32,60.15-179.49,84.43-279.57,64.54l-85.38-16.97c-100.08-19.89-205.25,4.39-279.57,64.54l-63.4,51.32
		c-74.32,60.15-179.49,84.43-279.57,64.54l-85.38-16.97c-100.08-19.89-205.25,4.39-279.57,64.54l-63.4,51.32
		c-74.32,60.15-179.49,84.43-279.57,64.54l-85.38-16.97c-100.08-19.89-205.25,4.39-279.57,64.54l-63.4,51.32
		c-74.32,60.15-179.49,84.43-279.57,64.54l-85.38-16.97c-100.08-19.89-205.25,4.39-279.57,64.54l-182.53,147.74"/>
	<path class="st1" d="M2138.16,295l-245.82-48.85c-100.08-19.89-205.25,4.39-279.57,64.54l-63.4,51.32
		c-74.32,60.15-179.49,84.43-279.57,64.54l-85.38-16.97c-100.08-19.89-205.25,4.39-279.57,64.54l-63.4,51.32
		c-74.32,60.15-179.49,84.43-279.57,64.54l-85.38-16.97c-100.08-19.89-205.25,4.39-279.57,64.54l-63.4,51.32
		c-74.32,60.15-179.49,84.43-279.57,64.54l-85.38-16.97c-100.08-19.89-205.25,4.39-279.57,64.54l-63.4,51.32
		c-74.32,60.15-179.49,84.43-279.57,64.54l-85.38-16.97c-100.08-19.89-205.25,4.39-279.57,64.54l-182.53,147.74"/>
	<path class="st1" d="M2157.97,358.42l-245.82-48.85c-100.08-19.89-205.25,4.39-279.57,64.54l-63.4,51.32
		c-74.32,60.15-179.49,84.43-279.57,64.54l-85.38-16.97c-100.08-19.89-205.25,4.39-279.57,64.54l-63.4,51.32
		c-74.32,60.15-179.49,84.43-279.57,64.54l-85.38-16.97c-100.08-19.89-205.25,4.39-279.57,64.54l-63.4,51.32
		c-74.32,60.15-179.49,84.43-279.57,64.54l-85.38-16.97c-100.08-19.89-205.25,4.39-279.57,64.54l-63.4,51.32
		c-74.32,60.15-179.49,84.43-279.57,64.54l-85.38-16.97c-100.08-19.89-205.25,4.39-279.57,64.54l-182.53,147.74"/>
	<path class="st1" d="M2211.6,501.78l-245.82-48.85c-100.08-19.89-205.25,4.39-279.57,64.54l-63.4,51.32
		c-74.32,60.15-179.49,84.43-279.57,64.54l-85.38-16.97c-100.08-19.89-205.25,4.39-279.57,64.54l-63.4,51.32
		c-74.32,60.15-179.49,84.43-279.57,64.54l-85.38-16.97c-100.08-19.89-205.25,4.39-279.57,64.54l-63.4,51.32
		c-74.32,60.15-179.49,84.43-279.57,64.54l-85.38-16.97c-100.08-19.89-205.25,4.39-279.57,64.54l-63.4,51.32
		c-74.32,60.15-179.49,84.43-279.57,64.54l-85.38-16.97c-100.08-19.89-205.25,4.39-279.57,64.54l-182.53,147.74"/>
	<path class="st1" d="M2188.18,429.04l-245.82-48.85c-100.08-19.89-205.25,4.39-279.57,64.54l-63.4,51.32
		c-74.32,60.15-179.49,84.43-279.57,64.54l-85.38-16.97c-100.08-19.89-205.25,4.39-279.57,64.54l-63.4,51.32
		c-74.32,60.15-179.49,84.43-279.57,64.54l-85.38-16.97c-100.08-19.89-205.25,4.39-279.57,64.54l-63.4,51.32
		C109.25,883.03,4.08,907.31-96,887.42l-85.38-16.97c-100.08-19.89-205.25,4.39-279.57,64.54l-63.4,51.32
		c-74.32,60.15-179.49,84.43-279.57,64.54l-85.38-16.97c-100.08-19.89-205.25,4.39-279.57,64.54l-182.53,147.74"/>
	<path class="st1" d="M2234.79,573.82l-245.82-48.85c-100.08-19.89-205.25,4.39-279.57,64.54l-63.4,51.32
		c-74.32,60.15-179.49,84.43-279.57,64.54l-85.38-16.97c-100.08-19.89-205.25,4.39-279.57,64.54l-63.4,51.32
		c-74.32,60.15-179.49,84.43-279.57,64.54l-85.38-16.97c-100.08-19.89-205.25,4.39-279.57,64.54l-63.4,51.32
		c-74.32,60.15-179.49,84.43-279.57,64.54l-85.38-16.97c-100.08-19.89-205.25,4.39-279.57,64.54l-63.4,51.32
		c-74.32,60.15-179.49,84.43-279.57,64.54l-85.38-16.97c-100.08-19.89-205.25,4.39-279.57,64.54l-182.53,147.74"/>
	<path class="st1" d="M2260.92,648.72l-245.82-48.85c-100.08-19.89-205.25,4.39-279.57,64.54l-63.4,51.32
		c-74.32,60.15-179.49,84.43-279.57,64.54l-85.38-16.97c-100.08-19.89-205.25,4.39-279.57,64.54l-63.4,51.32
		c-74.32,60.15-179.49,84.43-279.57,64.54l-85.38-16.97c-100.08-19.89-205.25,4.39-279.57,64.54l-63.4,51.32
		c-74.32,60.15-179.49,84.43-279.57,64.54l-85.38-16.97c-100.08-19.89-205.25,4.39-279.57,64.54l-63.4,51.32
		c-74.32,60.15-179.49,84.43-279.57,64.54l-85.38-16.97c-100.08-19.89-205.25,4.39-279.57,64.54l-182.53,147.74"/>
	<path class="st1" d="M2284.11,720.76l-245.82-48.85c-100.08-19.89-205.25,4.39-279.57,64.54l-63.4,51.32
		c-74.32,60.15-179.49,84.43-279.57,64.54l-85.38-16.97c-100.08-19.89-205.25,4.39-279.57,64.54l-63.4,51.32
		c-74.32,60.15-179.49,84.43-279.57,64.54l-85.38-16.97c-100.08-19.89-205.25,4.39-279.57,64.54l-63.4,51.32
		c-74.32,60.15-179.49,84.43-279.57,64.54l-85.38-16.97c-100.08-19.89-205.25,4.39-279.57,64.54l-63.4,51.32
		c-74.32,60.15-179.49,84.43-279.57,64.54l-85.38-16.97c-100.08-19.89-205.25,4.39-279.57,64.54l-182.53,147.74"/>
	<path class="st1" d="M2337.74,864.12l-245.82-48.85c-100.08-19.89-205.25,4.39-279.57,64.54l-63.4,51.32
		c-74.32,60.15-179.49,84.43-279.57,64.54L1384,978.69c-100.08-19.89-205.25,4.39-279.57,64.54l-63.4,51.32
		c-74.32,60.15-179.49,84.43-279.57,64.54l-85.38-16.97c-100.08-19.89-205.25,4.39-279.57,64.54l-63.4,51.32
		c-74.32,60.15-179.49,84.43-279.57,64.54l-85.38-16.97c-100.08-19.89-205.25,4.39-279.57,64.54l-63.4,51.32
		c-74.32,60.15-179.49,84.43-279.57,64.54l-85.38-16.97c-100.08-19.89-205.25,4.39-279.57,64.54l-182.53,147.74"/>
	<path class="st1" d="M2314.32,791.38l-245.82-48.85c-100.08-19.89-205.25,4.39-279.57,64.54l-63.4,51.32
		c-74.32,60.15-179.49,84.43-279.57,64.54l-85.38-16.97c-100.08-19.89-205.25,4.39-279.57,64.54l-63.4,51.32
		c-74.32,60.15-179.49,84.43-279.57,64.54l-85.38-16.97c-100.08-19.89-205.25,4.39-279.57,64.54l-63.4,51.32
		c-74.32,60.15-179.49,84.43-279.57,64.54l-85.38-16.97c-100.08-19.89-205.25,4.39-279.57,64.54l-63.4,51.32
		c-74.32,60.15-179.49,84.43-279.57,64.54l-85.38-16.97c-100.08-19.89-205.25,4.39-279.57,64.54l-182.53,147.74"/>
	<path class="st1" d="M2360.93,936.16l-245.82-48.85c-100.08-19.89-205.25,4.39-279.57,64.54l-63.4,51.32
		c-74.32,60.15-179.49,84.43-279.57,64.54l-85.38-16.97c-100.08-19.89-205.25,4.39-279.57,64.54l-63.4,51.32
		c-74.32,60.15-179.49,84.43-279.57,64.54l-85.38-16.97c-100.08-19.89-205.25,4.39-279.57,64.54l-63.4,51.32
		c-74.32,60.15-179.49,84.43-279.57,64.54l-85.38-16.97c-100.08-19.89-205.25,4.39-279.57,64.54l-63.4,51.32
		c-74.32,60.15-179.49,84.43-279.57,64.54l-85.38-16.97c-100.08-19.89-205.25,4.39-279.57,64.54l-182.53,147.74"/>
	<path class="st1" d="M2387.89,1007.84l-245.82-48.85c-100.08-19.89-205.25,4.39-279.57,64.54l-63.4,51.32
		c-74.32,60.15-179.49,84.43-279.57,64.54l-85.38-16.97c-100.08-19.89-205.25,4.39-279.57,64.54l-63.4,51.32
		c-74.32,60.15-179.49,84.43-279.57,64.54l-85.38-16.97c-100.08-19.89-205.25,4.39-279.57,64.54l-63.4,51.32
		c-74.32,60.15-179.49,84.43-279.57,64.54l-85.38-16.97c-100.08-19.89-205.25,4.39-279.57,64.54l-63.4,51.32
		c-74.32,60.15-179.49,84.43-279.57,64.54l-85.38-16.97c-100.08-19.89-205.25,4.39-279.57,64.54l-182.53,147.74"/>
	<path class="st1" d="M2411.08,1079.88l-245.82-48.85c-100.08-19.89-205.25,4.39-279.57,64.54l-63.4,51.32
		c-74.32,60.15-179.49,84.43-279.57,64.54l-85.38-16.97c-100.08-19.89-205.25,4.39-279.57,64.54l-63.4,51.32
		c-74.32,60.15-179.49,84.43-279.57,64.54l-85.38-16.97c-100.08-19.89-205.25,4.39-279.57,64.54l-63.4,51.32
		c-74.32,60.15-179.49,84.43-279.57,64.54l-85.38-16.97c-100.08-19.89-205.25,4.39-279.57,64.54l-63.4,51.32
		c-74.32,60.15-179.49,84.43-279.57,64.54l-85.38-16.97c-100.08-19.89-205.25,4.39-279.57,64.54l-182.53,147.74"/>
	<path class="st1" d="M2436.75,1151.82l-245.82-48.85c-100.08-19.89-205.25,4.39-279.57,64.54l-63.4,51.32
		c-74.32,60.15-179.49,84.43-279.57,64.54l-85.38-16.97c-100.08-19.89-205.25,4.39-279.57,64.54l-63.4,51.32
		c-74.32,60.15-179.49,84.43-279.57,64.54l-85.38-16.97c-100.08-19.89-205.25,4.39-279.57,64.54l-63.4,51.32
		c-74.32,60.15-179.49,84.43-279.57,64.54l-85.38-16.97c-100.08-19.89-205.25,4.39-279.57,64.54l-63.4,51.32
		c-74.32,60.15-179.49,84.43-279.57,64.54l-85.38-16.97c-100.08-19.89-205.25,4.39-279.57,64.54l-182.53,147.74"/>
	<g class="st2">
		<path class="st3" d="M-2020.79-151.12l272.2,54.1c110.82,22.02,227.28-4.86,309.57-71.46l70.2-56.82
			c82.29-66.6,198.75-93.49,309.57-71.46l94.55,18.79c110.82,22.02,227.28-4.86,309.57-71.46l70.2-56.82
			c82.29-66.6,198.75-93.49,309.57-71.46l94.55,18.79C-70-436.91,46.46-463.8,128.75-530.4l70.2-56.82
			c82.29-66.6,198.75-93.49,309.57-71.46l94.55,18.79c110.82,22.03,227.28-4.86,309.57-71.46l70.2-56.82
			c82.29-66.6,198.75-93.49,309.57-71.46l94.55,18.79c110.82,22.02,227.28-4.86,309.57-71.46l202.12-163.59l110.74,318.28
			l-202.12,163.59c-82.29,66.6-198.75,93.49-309.57,71.46l-94.55-18.79c-110.82-22.02-227.28,4.86-309.57,71.46l-70.2,56.82
			c-82.29,66.6-198.75,93.49-309.57,71.46l-94.55-18.79c-110.82-22.02-227.28,4.86-309.57,71.46l-70.2,56.82
			c-82.29,66.6-198.75,93.49-309.57,71.46l-94.55-18.79c-110.82-22.02-227.28,4.86-309.57,71.46l-70.2,56.82
			c-82.29,66.6-198.75,93.49-309.57,71.46l-94.55-18.79c-110.82-22.02-227.28,4.86-309.57,71.46l-70.2,56.82
			c-82.29,66.6-198.75,93.49-309.57,71.46l-272.2-54.1L-2020.79-151.12z"/>
		<linearGradient id="SVGID_4_" gradientUnits="userSpaceOnUse" x1="-2020.7926" y1="-414.7285" x2="2009.3909" y2="-414.7285">
			<stop  offset="0" style="stop-color:#95C11F"/>
			<stop  offset="0.7412" style="stop-color:#31B7BC"/>
		</linearGradient>
		<path class="st4" d="M-2020.79-152.29l272.2,54.1c110.82,22.02,227.28-4.86,309.57-71.46l70.2-56.82
			c82.29-66.6,198.75-93.49,309.57-71.46l94.55,18.79c110.82,22.02,227.28-4.86,309.57-71.46l70.2-56.82
			c82.29-66.6,198.75-93.49,309.57-71.46l94.55,18.79c110.82,22.02,227.28-4.86,309.57-71.46l70.2-56.82
			c82.29-66.6,198.75-93.49,309.57-71.46l94.55,18.79c110.82,22.02,227.28-4.86,309.57-71.46l70.2-56.82
			c82.29-66.6,198.75-93.49,309.57-71.46l94.55,18.79c110.82,22.03,227.28-4.86,309.57-71.46l202.12-163.59l110.74,318.28
			l-202.12,163.59c-82.29,66.6-198.75,93.49-309.57,71.46l-94.55-18.79c-110.82-22.02-227.28,4.86-309.57,71.46l-70.2,56.82
			c-82.29,66.6-198.75,93.49-309.57,71.46l-94.55-18.79c-110.82-22.02-227.28,4.86-309.57,71.46l-70.2,56.82
			c-82.29,66.6-198.75,93.49-309.57,71.46l-94.55-18.79c-110.82-22.02-227.28,4.86-309.57,71.46l-70.2,56.82
			c-82.29,66.6-198.75,93.49-309.57,71.46l-94.55-18.79c-110.82-22.02-227.28,4.86-309.57,71.46l-70.2,56.82
			c-82.29,66.6-198.75,93.49-309.57,71.46l-272.2-54.1L-2020.79-152.29z"/>
		<path class="st5" d="M-1935.73,86.22l272.2,54.1c110.82,22.02,227.28-4.86,309.57-71.46l70.2-56.82
			c82.29-66.6,198.75-93.49,309.57-71.46l94.55,18.79c110.82,22.02,227.28-4.86,309.57-71.46l70.2-56.82
			c82.29-66.6,198.75-93.49,309.57-71.46l94.55,18.79c110.82,22.02,227.28-4.86,309.57-71.46l70.2-56.82
			c82.29-66.6,198.75-93.49,309.57-71.46l94.55,18.79c110.82,22.02,227.28-4.86,309.57-71.46l70.2-56.82
			c82.29-66.6,198.75-93.49,309.57-71.46l94.55,18.79c110.82,22.03,227.28-4.86,309.57-71.46l202.12-163.59"/>
		<path class="st5" d="M-1995.11-72.52l272.2,54.1c110.82,22.02,227.28-4.86,309.57-71.46l70.2-56.82
			c82.29-66.6,198.75-93.49,309.57-71.46l94.55,18.79c110.82,22.02,227.28-4.86,309.57-71.46l70.2-56.82
			c82.29-66.6,198.75-93.49,309.57-71.46l94.55,18.79c110.82,22.02,227.28-4.86,309.57-71.46l70.2-56.82
			c82.29-66.6,198.75-93.49,309.57-71.46l94.55,18.79c110.82,22.03,227.28-4.86,309.57-71.46l70.2-56.82
			c82.29-66.6,198.75-93.49,309.57-71.46l94.55,18.79c110.82,22.02,227.28-4.86,309.57-71.46l202.12-163.59"/>
		<path class="st5" d="M-1969.19,8.02l272.2,54.1c110.82,22.02,227.28-4.86,309.57-71.46l70.2-56.82
			c82.29-66.6,198.75-93.49,309.57-71.46l94.55,18.79c110.82,22.02,227.28-4.86,309.57-71.46l70.2-56.82
			c82.29-66.6,198.75-93.49,309.57-71.46l94.55,18.79c110.82,22.02,227.28-4.86,309.57-71.46l70.2-56.82
			c82.29-66.6,198.75-93.49,309.57-71.46l94.55,18.79c110.82,22.02,227.28-4.86,309.57-71.46l70.2-56.82
			c82.29-66.6,198.75-93.49,309.57-71.46l94.55,18.79c110.82,22.03,227.28-4.86,309.57-71.46l202.12-163.59"/>
	</g>
	<g class="st2">
		<path class="st3" d="M-1795.31,487.17l272.2,54.1c110.82,22.02,227.28-4.86,309.57-71.46l70.2-56.82
			c82.29-66.6,198.75-93.49,309.57-71.46l94.55,18.79c110.82,22.02,227.28-4.86,309.57-71.46l70.2-56.82
			c82.29-66.6,198.75-93.49,309.57-71.46l94.55,18.79c110.82,22.02,227.28-4.86,309.57-71.46l70.2-56.82
			c82.29-66.6,198.75-93.49,309.57-71.46l94.55,18.79c110.82,22.02,227.28-4.86,309.57-71.46l70.2-56.82
			c82.29-66.6,198.75-93.49,309.57-71.46l94.55,18.79c110.82,22.02,227.28-4.86,309.57-71.46l202.12-163.59l110.74,318.28
			L2032.75,64.25c-82.29,66.6-198.75,93.49-309.57,71.46l-94.55-18.79c-110.82-22.02-227.28,4.86-309.57,71.46l-70.2,56.82
			c-82.29,66.6-198.75,93.49-309.57,71.46l-94.55-18.79c-110.82-22.02-227.28,4.86-309.57,71.46l-70.2,56.82
			c-82.29,66.6-198.75,93.49-309.57,71.46l-94.55-18.79c-110.82-22.02-227.28,4.86-309.57,71.46l-70.2,56.82
			c-82.29,66.6-198.75,93.49-309.57,71.46l-94.55-18.79c-110.82-22.02-227.28,4.86-309.57,71.46l-70.2,56.82
			c-82.29,66.6-198.75,93.49-309.57,71.46l-272.2-54.1L-1795.31,487.17z"/>
		<linearGradient id="SVGID_5_" gradientUnits="userSpaceOnUse" x1="-1795.312" y1="223.5608" x2="2234.8713" y2="223.5608">
			<stop  offset="3.163671e-03" style="stop-color:#31B7BC"/>
			<stop  offset="0.1899" style="stop-color:#38B7B8"/>
			<stop  offset="1" style="stop-color:#95C11F"/>
		</linearGradient>
		<path class="st6" d="M-1795.31,486l272.2,54.1c110.82,22.02,227.28-4.86,309.57-71.46l70.2-56.82
			c82.29-66.6,198.75-93.49,309.57-71.46l94.55,18.79c110.82,22.02,227.28-4.86,309.57-71.46l70.2-56.82
			c82.29-66.6,198.75-93.49,309.57-71.46l94.55,18.79c110.82,22.02,227.28-4.86,309.57-71.46l70.2-56.82
			c82.29-66.6,198.75-93.49,309.57-71.46l94.55,18.79c110.82,22.02,227.28-4.86,309.57-71.46l70.2-56.82
			c82.29-66.6,198.75-93.49,309.57-71.46l94.55,18.79c110.82,22.02,227.28-4.86,309.57-71.46l202.12-163.59l110.74,318.28
			L2032.75,63.07c-82.29,66.6-198.75,93.49-309.57,71.46l-94.55-18.79c-110.82-22.02-227.28,4.86-309.57,71.46l-70.2,56.82
			c-82.29,66.6-198.75,93.49-309.57,71.46l-94.55-18.79c-110.82-22.02-227.28,4.86-309.57,71.46l-70.2,56.82
			c-82.29,66.6-198.75,93.49-309.57,71.46l-94.55-18.79c-110.82-22.02-227.28,4.86-309.57,71.46l-70.2,56.82
			c-82.29,66.6-198.75,93.49-309.57,71.46l-94.55-18.79c-110.82-22.03-227.28,4.86-309.57,71.46l-70.2,56.82
			c-82.29,66.6-198.75,93.49-309.57,71.46l-272.2-54.1L-1795.31,486z"/>
		<path class="st5" d="M-1710.25,724.51l272.2,54.1c110.82,22.02,227.28-4.86,309.57-71.46l70.2-56.82
			c82.29-66.6,198.75-93.49,309.57-71.46l94.55,18.79c110.82,22.02,227.28-4.86,309.57-71.46l70.2-56.82
			c82.29-66.6,198.75-93.49,309.57-71.46l94.55,18.79c110.82,22.02,227.28-4.86,309.57-71.46l70.2-56.82
			c82.29-66.6,198.75-93.49,309.57-71.46l94.55,18.79c110.82,22.02,227.28-4.86,309.57-71.46l70.2-56.82
			c82.29-66.6,198.75-93.49,309.57-71.46l94.55,18.79c110.82,22.02,227.28-4.86,309.57-71.46l202.12-163.59"/>
		<path class="st5" d="M-1769.63,565.77l272.2,54.1c110.82,22.02,227.28-4.86,309.57-71.46l70.2-56.82
			c82.29-66.6,198.75-93.49,309.57-71.46l94.55,18.79c110.82,22.02,227.28-4.86,309.57-71.46l70.2-56.82
			c82.29-66.6,198.75-93.49,309.57-71.46l94.55,18.79c110.82,22.02,227.28-4.86,309.57-71.46l70.2-56.82
			c82.29-66.6,198.75-93.49,309.57-71.46l94.55,18.79c110.82,22.02,227.28-4.86,309.57-71.46L1234-51.3
			c82.29-66.6,198.75-93.49,309.57-71.46l94.55,18.79c110.82,22.02,227.28-4.86,309.57-71.46l202.12-163.59"/>
		<path class="st5" d="M-1743.71,646.31l272.2,54.1c110.82,22.02,227.28-4.86,309.57-71.46l70.2-56.82
			c82.29-66.6,198.75-93.49,309.57-71.46l94.55,18.79c110.82,22.03,227.28-4.86,309.57-71.46l70.2-56.82
			c82.29-66.6,198.75-93.49,309.57-71.46l94.55,18.79c110.82,22.02,227.28-4.86,309.57-71.46l70.2-56.82
			c82.29-66.6,198.75-93.49,309.57-71.46l94.55,18.79c110.82,22.02,227.28-4.86,309.57-71.46l70.2-56.82
			c82.29-66.6,198.75-93.49,309.57-71.46l94.55,18.79c110.82,22.02,227.28-4.86,309.57-71.46l202.12-163.59"/>
	</g>
	<g class="st2">
		<path class="st3" d="M-1577.36,1125.53l272.2,54.1c110.82,22.03,227.28-4.86,309.57-71.46l70.2-56.82
			c82.29-66.6,198.75-93.49,309.57-71.46l94.55,18.79c110.82,22.02,227.28-4.86,309.57-71.46l70.2-56.82
			c82.29-66.6,198.75-93.49,309.57-71.46l94.55,18.79c110.82,22.03,227.28-4.86,309.57-71.46l70.2-56.82
			c82.29-66.6,198.75-93.49,309.57-71.46l94.55,18.79c110.82,22.02,227.28-4.86,309.57-71.46l70.2-56.82
			c82.29-66.6,198.75-93.49,309.57-71.46l94.55,18.79c110.82,22.02,227.28-4.86,309.57-71.46l202.12-163.59l110.74,318.28
			L2250.7,702.6c-82.29,66.6-198.75,93.49-309.57,71.46l-94.55-18.79c-110.82-22.02-227.28,4.86-309.57,71.46l-70.2,56.82
			c-82.29,66.6-198.75,93.49-309.57,71.46l-94.55-18.79c-110.82-22.03-227.28,4.86-309.57,71.46l-70.2,56.82
			c-82.29,66.6-198.75,93.49-309.57,71.46l-94.55-18.79c-110.82-22.03-227.28,4.86-309.57,71.46l-70.2,56.82
			c-82.29,66.6-198.75,93.49-309.57,71.46l-94.55-18.79c-110.82-22.02-227.28,4.86-309.57,71.46l-70.2,56.82
			c-82.29,66.6-198.75,93.49-309.57,71.46l-272.2-54.1L-1577.36,1125.53z"/>
		<linearGradient id="SVGID_6_" gradientUnits="userSpaceOnUse" x1="-1577.3636" y1="861.9167" x2="2452.8198" y2="861.9167">
			<stop  offset="0" style="stop-color:#95C11F"/>
			<stop  offset="0.7412" style="stop-color:#31B7BC"/>
		</linearGradient>
		<path class="st7" d="M-1577.36,1124.35l272.2,54.1c110.82,22.02,227.28-4.86,309.57-71.46l70.2-56.82
			c82.29-66.6,198.75-93.49,309.57-71.46l94.55,18.79c110.82,22.03,227.28-4.86,309.57-71.46l70.2-56.82
			c82.29-66.6,198.75-93.49,309.57-71.46l94.55,18.79c110.82,22.02,227.28-4.86,309.57-71.46l70.2-56.82
			c82.29-66.6,198.75-93.49,309.57-71.46l94.55,18.79c110.82,22.03,227.28-4.86,309.57-71.46l70.2-56.82
			c82.29-66.6,198.75-93.49,309.57-71.46l94.55,18.79c110.82,22.02,227.28-4.86,309.57-71.46l202.12-163.59l110.74,318.28
			L2250.7,701.43c-82.29,66.6-198.75,93.49-309.57,71.46l-94.55-18.79c-110.82-22.02-227.28,4.86-309.57,71.46l-70.2,56.82
			c-82.29,66.6-198.75,93.49-309.57,71.46l-94.55-18.79c-110.82-22.02-227.28,4.86-309.57,71.46l-70.2,56.82
			c-82.29,66.6-198.75,93.49-309.57,71.46l-94.55-18.79c-110.82-22.02-227.28,4.86-309.57,71.46l-70.2,56.82
			c-82.29,66.6-198.75,93.49-309.57,71.46l-94.55-18.79c-110.82-22.03-227.28,4.86-309.57,71.46l-70.2,56.82
			c-82.29,66.6-198.75,93.49-309.57,71.46l-272.2-54.1L-1577.36,1124.35z"/>
		<path class="st5" d="M-1492.3,1362.87l272.2,54.1c110.82,22.03,227.28-4.86,309.57-71.46l70.2-56.82
			c82.29-66.6,198.75-93.49,309.57-71.46l94.55,18.79c110.82,22.02,227.28-4.86,309.57-71.46l70.2-56.82
			c82.29-66.6,198.75-93.49,309.57-71.46l94.55,18.79c110.82,22.03,227.28-4.86,309.57-71.46l70.2-56.82
			c82.29-66.6,198.75-93.49,309.57-71.46l94.55,18.79c110.82,22.03,227.28-4.86,309.57-71.46l70.2-56.82
			c82.29-66.6,198.75-93.49,309.57-71.46l94.55,18.79c110.82,22.02,227.28-4.86,309.57-71.46l202.12-163.59"/>
		<path class="st5" d="M-1551.69,1204.12l272.2,54.1c110.82,22.02,227.28-4.86,309.57-71.46l70.2-56.82
			c82.29-66.6,198.75-93.49,309.57-71.46l94.55,18.79c110.82,22.03,227.28-4.86,309.57-71.46l70.2-56.82
			c82.29-66.6,198.75-93.49,309.57-71.46l94.55,18.79c110.82,22.03,227.28-4.86,309.57-71.46l70.2-56.82
			c82.29-66.6,198.75-93.49,309.57-71.46l94.55,18.79c110.82,22.02,227.28-4.86,309.57-71.46l70.2-56.82
			c82.29-66.6,198.75-93.49,309.57-71.46l94.55,18.79c110.82,22.03,227.28-4.86,309.57-71.46l202.12-163.59"/>
		<path class="st5" d="M-1525.76,1284.67l272.2,54.1c110.82,22.03,227.28-4.86,309.57-71.46l70.2-56.82
			c82.29-66.6,198.75-93.49,309.57-71.46l94.55,18.79c110.82,22.03,227.28-4.86,309.57-71.46l70.2-56.82
			c82.29-66.6,198.75-93.49,309.57-71.46l94.55,18.79c110.82,22.03,227.28-4.86,309.57-71.46l70.2-56.82
			c82.29-66.6,198.75-93.49,309.57-71.46l94.55,18.79c110.82,22.02,227.28-4.86,309.57-71.46l70.2-56.82
			c82.29-66.6,198.75-93.49,309.57-71.46l94.55,18.79c110.82,22.02,227.28-4.86,309.57-71.46l202.12-163.59"/>
	</g>
	<g class="st2">
		<path class="st3" d="M-1351.88,1763.82l272.2,54.1c110.82,22.03,227.28-4.86,309.57-71.46l70.2-56.82
			c82.29-66.6,198.75-93.49,309.57-71.46l94.55,18.79c110.82,22.03,227.28-4.86,309.57-71.46l70.2-56.82
			c82.29-66.6,198.75-93.49,309.57-71.46l94.55,18.79c110.82,22.02,227.28-4.86,309.57-71.46l70.2-56.82
			c82.29-66.6,198.75-93.49,309.57-71.46l94.55,18.79c110.82,22.03,227.28-4.86,309.57-71.46l70.2-56.82
			c82.29-66.6,198.75-93.49,309.57-71.46l94.55,18.79c110.82,22.03,227.28-4.86,309.57-71.46l202.12-163.59l110.74,318.28
			l-202.12,163.59c-82.29,66.6-198.75,93.49-309.57,71.46l-94.55-18.79c-110.82-22.02-227.28,4.86-309.57,71.46l-70.2,56.82
			c-82.29,66.6-198.75,93.49-309.57,71.46l-94.55-18.79c-110.82-22.03-227.28,4.86-309.57,71.46l-70.2,56.82
			c-82.29,66.6-198.75,93.49-309.57,71.46l-94.55-18.79c-110.82-22.03-227.28,4.86-309.57,71.46l-70.2,56.82
			c-82.29,66.6-198.75,93.49-309.57,71.46l-94.55-18.79c-110.82-22.02-227.28,4.86-309.57,71.46l-70.2,56.82
			c-82.29,66.6-198.75,93.49-309.57,71.46l-272.2-54.1L-1351.88,1763.82z"/>
		<linearGradient id="SVGID_7_" gradientUnits="userSpaceOnUse" x1="-1351.8831" y1="1500.2061" x2="2678.3003" y2="1500.2061">
			<stop  offset="3.163671e-03" style="stop-color:#31B7BC"/>
			<stop  offset="0.1899" style="stop-color:#38B7B8"/>
			<stop  offset="1" style="stop-color:#95C11F"/>
		</linearGradient>
		<path class="st8" d="M-1351.88,1762.64l272.2,54.1c110.82,22.02,227.28-4.86,309.57-71.46l70.2-56.82
			c82.29-66.6,198.75-93.49,309.57-71.46l94.55,18.79c110.82,22.03,227.28-4.86,309.57-71.46l70.2-56.82
			c82.29-66.6,198.75-93.49,309.57-71.46l94.55,18.79c110.82,22.03,227.28-4.86,309.57-71.46l70.2-56.82
			c82.29-66.6,198.75-93.49,309.57-71.46l94.55,18.79c110.82,22.02,227.28-4.86,309.57-71.46l70.2-56.82
			c82.29-66.6,198.75-93.49,309.57-71.46l94.55,18.79c110.82,22.03,227.28-4.86,309.57-71.46l202.12-163.59l110.74,318.28
			l-202.12,163.59c-82.29,66.6-198.75,93.49-309.57,71.46l-94.55-18.79c-110.82-22.03-227.28,4.86-309.57,71.46l-70.2,56.82
			c-82.29,66.6-198.75,93.49-309.57,71.46l-94.55-18.79c-110.82-22.03-227.28,4.86-309.57,71.46l-70.2,56.82
			c-82.29,66.6-198.75,93.49-309.57,71.46l-94.55-18.79c-110.82-22.02-227.28,4.86-309.57,71.46l-70.2,56.82
			c-82.29,66.6-198.75,93.49-309.57,71.46l-94.55-18.79c-110.82-22.03-227.28,4.86-309.57,71.46l-70.2,56.82
			c-82.29,66.6-198.75,93.49-309.57,71.46l-272.2-54.1L-1351.88,1762.64z"/>
		<path class="st5" d="M-1266.82,2001.16l272.2,54.1c110.82,22.02,227.28-4.86,309.57-71.46l70.2-56.82
			c82.29-66.6,198.75-93.49,309.57-71.46l94.55,18.79c110.82,22.02,227.28-4.86,309.57-71.46l70.2-56.82
			c82.29-66.6,198.75-93.49,309.57-71.46l94.55,18.79c110.82,22.03,227.28-4.86,309.57-71.46l70.2-56.82
			c82.29-66.6,198.75-93.49,309.57-71.46l94.55,18.79c110.82,22.03,227.28-4.86,309.57-71.46l70.2-56.82
			c82.29-66.6,198.75-93.49,309.57-71.46l94.55,18.79c110.82,22.03,227.28-4.86,309.57-71.46l202.12-163.59"/>
		<path class="st5" d="M-1326.21,1842.41l272.2,54.1c110.82,22.02,227.28-4.86,309.57-71.46l70.2-56.82
			c82.29-66.6,198.75-93.49,309.57-71.46l94.55,18.79c110.82,22.03,227.28-4.86,309.57-71.46l70.2-56.82
			c82.29-66.6,198.75-93.49,309.57-71.46l94.55,18.79c110.82,22.03,227.28-4.86,309.57-71.46l70.2-56.82
			c82.29-66.6,198.75-93.49,309.57-71.46l94.55,18.79c110.82,22.03,227.28-4.86,309.57-71.46l70.2-56.82
			c82.29-66.6,198.75-93.49,309.57-71.46l94.55,18.79c110.82,22.02,227.28-4.86,309.57-71.46l202.12-163.59"/>
		<path class="st5" d="M-1300.28,1922.96l272.2,54.1c110.82,22.03,227.28-4.86,309.57-71.46l70.2-56.82
			c82.29-66.6,198.75-93.49,309.57-71.46l94.55,18.79c110.82,22.03,227.28-4.86,309.57-71.46l70.2-56.82
			c82.29-66.6,198.75-93.49,309.57-71.46l94.55,18.79c110.82,22.02,227.28-4.86,309.57-71.46l70.2-56.82
			c82.29-66.6,198.75-93.49,309.57-71.46l94.55,18.79c110.82,22.03,227.28-4.86,309.57-71.46l70.2-56.82
			c82.29-66.6,198.75-93.49,309.57-71.46l94.55,18.79c110.82,22.03,227.28-4.86,309.57-71.46l202.12-163.59"/>
	</g>
	<rect x="-213.16" y="-550.86" class="st9" width="2037.31" height="2881.34"/>
	<g class="st2">
	</g>
</g>
</svg>
