<?xml version="1.0" encoding="utf-8"?>
<!-- Generator: Adobe Illustrator 23.0.3, SVG Export Plug-In . SVG Version: 6.00 Build 0)  -->
<svg version="1.1" id="Calque_1" xmlns="http://www.w3.org/2000/svg" xmlns:xlink="http://www.w3.org/1999/xlink" x="0px" y="0px"
	 viewBox="0 0 3061.42 3061.42" style="enable-background:new 0 0 3061.42 3061.42;" xml:space="preserve">
<style type="text/css">
	.st0{fill:url(#SVGID_1_);}
</style>
<linearGradient id="SVGID_1_" gradientUnits="userSpaceOnUse" x1="-6.6683" y1="1530.7086" x2="3004.9744" y2="1530.7086">
	<stop  offset="0" style="stop-color:#95C11F"/>
	<stop  offset="0.7936" style="stop-color:#31B7BC"/>
</linearGradient>
<path class="st0" d="M5.99,1487.5c0-22.49,0-44.98,0-67.46c4.74-38.39,23.99-67.92,51.54-93.18
	c130.94-120.05,258.7-243.71,388.12-365.49c83.35-78.43,165.97-157.74,249.19-236.32c106.58-100.64,213.03-201.44,319.78-301.9
	c84.08-79.13,167.57-158.95,251.12-238.69c47.95-45.76,95.48-92.07,144.99-136.01c70.22-62.31,158.16-65.05,231.14-5.08
	c72.78,59.8,140.9,125.41,210.99,188.57c118.55,106.83,236.92,213.87,355.33,320.86c119.9,108.33,239.81,216.65,359.79,324.88
	c119.24,107.56,238.34,215.27,357.53,322.88c28.29,25.54,57.25,50.31,84.09,77.62c50.31,51.2,56.25,115.99,32.06,175.88
	c-27.65,68.48-79.68,120.87-148.11,152.16c-38.92,17.8-72.86,11.79-104.27-17.19c-9.29-8.57-17.53-19.28-30.28-23.99
	c-8.1,13.43-4.74,27.02-4.75,39.89c-0.2,423.12-2.32,846.26,1.23,1269.35c0.99,117.7-79.67,189.59-183.1,187.08
	c-176.18-4.27-352.53-0.82-528.8-1.35c-73.05-0.22-122.82-35.45-147.73-101.58c-8.12-21.56-8.57-43.84-8.57-66.38
	c0.04-290.26,0.03-580.51,0.03-870.77c0-10.22,0.02-20.44,0-30.66c-0.12-46.49-0.12-46.57-43.87-46.63
	c-62.39-0.08-124.78-0.02-187.17-0.02c-129.73,0-259.46-0.08-389.19,0.05c-38.67,0.04-40.23,1.6-40.24,41.44
	c-0.09,292.3-0.06,584.6-0.02,876.9c0,22.52-0.47,44.88-5.23,67.06c-16.07,74.92-78.67,129.99-152.78,130.41
	c-177.26,1-354.53,0.98-531.8,0.03c-83.34-0.45-152.37-69.72-158.61-156.23c-1.03-14.28-0.55-28.61-0.55-42.91
	c0.02-438.39-0.07-876.78,0.04-1320.78c-28.17,23.75-51.73,47.43-76.41,69.51c-63.53,56.81-135.45,61.82-203.8,11.76
	C52.12,1587.82,15.71,1547.28,5.99,1487.5z"/>
</svg>
